<?xml version="1.0" encoding="utf-8"?>
<!-- Generator: Adobe Illustrator 24.3.0, SVG Export Plug-In . SVG Version: 6.00 Build 0)  -->
<svg version="1.1" id="Capa_1" xmlns="http://www.w3.org/2000/svg" xmlns:xlink="http://www.w3.org/1999/xlink" x="0px" y="0px"
	 viewBox="0 0 24 24" style="enable-background:new 0 0 24 24;" xml:space="preserve">
<style type="text/css">
	.st0{fill:#FFFFFF;}
</style>
<path class="st0" d="M12,0.1C5.4,0.1,0,5.4,0,12s5.4,12,12,12s12-5.4,12-12l0,0C23.9,5.4,18.6,0.1,12,0.1z M12,21.6
	c-5.3,0-9.6-4.3-9.6-9.6c0-5.3,4.3-9.6,9.6-9.6c5.3,0,9.6,4.3,9.6,9.6v0C21.5,17.3,17.3,21.6,12,21.6z"/>
<path class="st0" d="M16.8,9.6c0-2-1.6-3.6-3.6-3.6h-6v12h2.4v-4.8h1.7l3.2,4.8h2.9l-3.3-4.9C15.7,12.7,16.8,11.3,16.8,9.6z
	 M13.2,10.8H9.6V8.4h3.6c0.7,0,1.2,0.5,1.2,1.2S13.8,10.8,13.2,10.8z"/>
</svg>
